<mxfile host="app.diagrams.net" agent="Mozilla/5.0 (Windows NT 10.0; Win64; x64) AppleWebKit/537.36 (KHTML, like Gecko) Chrome/136.0.0.0 Safari/537.36 Edg/136.0.0.0" version="27.0.3">
  <diagram name="Strona-1" id="EDZXKJsPl1NA070mS1Qs">
    <mxGraphModel dx="2058" dy="1146" grid="1" gridSize="10" guides="1" tooltips="1" connect="1" arrows="1" fold="1" page="1" pageScale="1" pageWidth="827" pageHeight="1169" math="0" shadow="0">
      <root>
        <mxCell id="0" />
        <mxCell id="1" parent="0" />
        <mxCell id="9sJ1elhZ4OUm8Hbvwxz0-4" value="sd System Bezpieczeństwa (wykrywanie ruchu)" style="shape=umlFrame;whiteSpace=wrap;html=1;pointerEvents=0;width=280;height=20;" vertex="1" parent="1">
          <mxGeometry x="40" y="40" width="780" height="620" as="geometry" />
        </mxCell>
        <mxCell id="9sJ1elhZ4OUm8Hbvwxz0-6" value="&lt;blockquote style=&quot;margin: 0 0 0 40px; border: none; padding: 0px;&quot;&gt;&lt;div style=&quot;&quot;&gt;&lt;span style=&quot;background-color: transparent; color: light-dark(rgb(0, 0, 0), rgb(255, 255, 255));&quot;&gt;&lt;font&gt;Aplikacja&amp;nbsp;&lt;/font&gt;&lt;/span&gt;&lt;/div&gt;&lt;/blockquote&gt;&lt;blockquote style=&quot;margin: 0 0 0 40px; border: none; padding: 0px;&quot;&gt;&lt;div style=&quot;&quot;&gt;&lt;font&gt;mobilna&lt;/font&gt;&lt;/div&gt;&lt;/blockquote&gt;" style="shape=umlLifeline;perimeter=lifelinePerimeter;whiteSpace=wrap;html=1;container=1;dropTarget=0;collapsible=0;recursiveResize=0;outlineConnect=0;portConstraint=eastwest;newEdgeStyle={&quot;curved&quot;:0,&quot;rounded&quot;:0};participant=umlBoundary;size=80;align=left;" vertex="1" parent="1">
          <mxGeometry x="60" y="80" width="100" height="560" as="geometry" />
        </mxCell>
        <mxCell id="9sJ1elhZ4OUm8Hbvwxz0-13" value="" style="html=1;points=[[0,0,0,0,5],[0,1,0,0,-5],[1,0,0,0,5],[1,1,0,0,-5]];perimeter=orthogonalPerimeter;outlineConnect=0;targetShapes=umlLifeline;portConstraint=eastwest;newEdgeStyle={&quot;curved&quot;:0,&quot;rounded&quot;:0};" vertex="1" parent="9sJ1elhZ4OUm8Hbvwxz0-6">
          <mxGeometry x="45" y="110" width="10" height="370" as="geometry" />
        </mxCell>
        <mxCell id="9sJ1elhZ4OUm8Hbvwxz0-7" value="Służby&lt;div&gt;ratunkowe&lt;/div&gt;" style="shape=umlLifeline;perimeter=lifelinePerimeter;whiteSpace=wrap;html=1;container=1;dropTarget=0;collapsible=0;recursiveResize=0;outlineConnect=0;portConstraint=eastwest;newEdgeStyle={&quot;curved&quot;:0,&quot;rounded&quot;:0};participant=umlEntity;size=80;" vertex="1" parent="1">
          <mxGeometry x="560" y="320" width="80" height="320" as="geometry" />
        </mxCell>
        <mxCell id="9sJ1elhZ4OUm8Hbvwxz0-17" value="" style="html=1;points=[[0,0,0,0,5],[0,1,0,0,-5],[1,0,0,0,5],[1,1,0,0,-5]];perimeter=orthogonalPerimeter;outlineConnect=0;targetShapes=umlLifeline;portConstraint=eastwest;newEdgeStyle={&quot;curved&quot;:0,&quot;rounded&quot;:0};" vertex="1" parent="9sJ1elhZ4OUm8Hbvwxz0-7">
          <mxGeometry x="35" y="120" width="10" height="60" as="geometry" />
        </mxCell>
        <mxCell id="9sJ1elhZ4OUm8Hbvwxz0-8" value="System reagowania" style="shape=umlLifeline;perimeter=lifelinePerimeter;whiteSpace=wrap;html=1;container=1;dropTarget=0;collapsible=0;recursiveResize=0;outlineConnect=0;portConstraint=eastwest;newEdgeStyle={&quot;curved&quot;:0,&quot;rounded&quot;:0};participant=umlControl;size=90;" vertex="1" parent="1">
          <mxGeometry x="240" y="70" width="80" height="570" as="geometry" />
        </mxCell>
        <mxCell id="9sJ1elhZ4OUm8Hbvwxz0-11" value="" style="html=1;points=[[0,0,0,0,5],[0,1,0,0,-5],[1,0,0,0,5],[1,1,0,0,-5]];perimeter=orthogonalPerimeter;outlineConnect=0;targetShapes=umlLifeline;portConstraint=eastwest;newEdgeStyle={&quot;curved&quot;:0,&quot;rounded&quot;:0};" vertex="1" parent="9sJ1elhZ4OUm8Hbvwxz0-8">
          <mxGeometry x="35" y="105" width="10" height="445" as="geometry" />
        </mxCell>
        <mxCell id="9sJ1elhZ4OUm8Hbvwxz0-9" value="&lt;blockquote style=&quot;margin: 0 0 0 40px; border: none; padding: 0px;&quot;&gt;&lt;div style=&quot;&quot;&gt;Czujnik&lt;/div&gt;&lt;div style=&quot;&quot;&gt;ruchu&lt;/div&gt;&lt;/blockquote&gt;" style="shape=umlLifeline;perimeter=lifelinePerimeter;whiteSpace=wrap;html=1;container=1;dropTarget=0;collapsible=0;recursiveResize=0;outlineConnect=0;portConstraint=eastwest;newEdgeStyle={&quot;curved&quot;:0,&quot;rounded&quot;:0};participant=umlBoundary;size=80;align=left;" vertex="1" parent="1">
          <mxGeometry x="380" y="80" width="100" height="560" as="geometry" />
        </mxCell>
        <mxCell id="9sJ1elhZ4OUm8Hbvwxz0-5" value="" style="html=1;points=[[0,0,0,0,5],[0,1,0,0,-5],[1,0,0,0,5],[1,1,0,0,-5]];perimeter=orthogonalPerimeter;outlineConnect=0;targetShapes=umlLifeline;portConstraint=eastwest;newEdgeStyle={&quot;curved&quot;:0,&quot;rounded&quot;:0};" vertex="1" parent="9sJ1elhZ4OUm8Hbvwxz0-9">
          <mxGeometry x="45" y="95" width="10" height="85" as="geometry" />
        </mxCell>
        <mxCell id="9sJ1elhZ4OUm8Hbvwxz0-10" value="loop" style="shape=umlFrame;whiteSpace=wrap;html=1;pointerEvents=0;" vertex="1" parent="1">
          <mxGeometry x="200" y="180" width="250" height="70" as="geometry" />
        </mxCell>
        <mxCell id="9sJ1elhZ4OUm8Hbvwxz0-12" value="Wykryto Ruch" style="endArrow=classic;html=1;rounded=0;" edge="1" parent="1" source="9sJ1elhZ4OUm8Hbvwxz0-5" target="9sJ1elhZ4OUm8Hbvwxz0-11">
          <mxGeometry width="50" height="50" relative="1" as="geometry">
            <mxPoint x="420" y="220" as="sourcePoint" />
            <mxPoint x="330" y="220" as="targetPoint" />
            <Array as="points">
              <mxPoint x="340" y="230" />
            </Array>
          </mxGeometry>
        </mxCell>
        <mxCell id="9sJ1elhZ4OUm8Hbvwxz0-15" value="Użytkownik w domu?" style="endArrow=classic;html=1;rounded=0;" edge="1" parent="1" source="9sJ1elhZ4OUm8Hbvwxz0-11" target="9sJ1elhZ4OUm8Hbvwxz0-13">
          <mxGeometry x="0.003" width="50" height="50" relative="1" as="geometry">
            <mxPoint x="280" y="250" as="sourcePoint" />
            <mxPoint x="140" y="250" as="targetPoint" />
            <Array as="points">
              <mxPoint x="200" y="290" />
            </Array>
            <mxPoint as="offset" />
          </mxGeometry>
        </mxCell>
        <mxCell id="9sJ1elhZ4OUm8Hbvwxz0-16" value="Informacja o lokacji" style="endArrow=classic;html=1;rounded=0;" edge="1" parent="1" source="9sJ1elhZ4OUm8Hbvwxz0-13" target="9sJ1elhZ4OUm8Hbvwxz0-11">
          <mxGeometry width="50" height="50" relative="1" as="geometry">
            <mxPoint x="160" y="400" as="sourcePoint" />
            <mxPoint x="210" y="350" as="targetPoint" />
          </mxGeometry>
        </mxCell>
        <mxCell id="9sJ1elhZ4OUm8Hbvwxz0-18" value="alt" style="shape=umlFrame;whiteSpace=wrap;html=1;pointerEvents=0;" vertex="1" parent="1">
          <mxGeometry x="200" y="430" width="430" height="120" as="geometry" />
        </mxCell>
        <mxCell id="9sJ1elhZ4OUm8Hbvwxz0-19" value="" style="rounded=0;whiteSpace=wrap;html=1;fillColor=none;" vertex="1" parent="1">
          <mxGeometry x="200" y="550" width="430" height="60" as="geometry" />
        </mxCell>
        <mxCell id="9sJ1elhZ4OUm8Hbvwxz0-21" value="Powiadom służby" style="endArrow=classic;html=1;rounded=0;" edge="1" parent="1" source="9sJ1elhZ4OUm8Hbvwxz0-11" target="9sJ1elhZ4OUm8Hbvwxz0-17">
          <mxGeometry width="50" height="50" relative="1" as="geometry">
            <mxPoint x="290" y="469.5" as="sourcePoint" />
            <mxPoint x="450" y="469.5" as="targetPoint" />
            <Array as="points">
              <mxPoint x="420" y="460" />
            </Array>
          </mxGeometry>
        </mxCell>
        <mxCell id="9sJ1elhZ4OUm8Hbvwxz0-22" value="[nie ma w domu]" style="text;html=1;align=center;verticalAlign=middle;whiteSpace=wrap;rounded=0;" vertex="1" parent="1">
          <mxGeometry x="200" y="470" width="60" height="30" as="geometry" />
        </mxCell>
        <mxCell id="9sJ1elhZ4OUm8Hbvwxz0-23" value="[jest w domu]" style="text;html=1;align=center;verticalAlign=middle;whiteSpace=wrap;rounded=0;" vertex="1" parent="1">
          <mxGeometry x="200" y="570" width="60" height="30" as="geometry" />
        </mxCell>
        <mxCell id="9sJ1elhZ4OUm8Hbvwxz0-26" value="Zarejestruj zdarzenie awaryjne" style="endArrow=classic;html=1;rounded=0;" edge="1" parent="1" source="9sJ1elhZ4OUm8Hbvwxz0-11" target="9sJ1elhZ4OUm8Hbvwxz0-29">
          <mxGeometry width="50" height="50" relative="1" as="geometry">
            <mxPoint x="320" y="540" as="sourcePoint" />
            <mxPoint x="675" y="490" as="targetPoint" />
            <Array as="points">
              <mxPoint x="480" y="490" />
            </Array>
          </mxGeometry>
        </mxCell>
        <mxCell id="9sJ1elhZ4OUm8Hbvwxz0-27" value="Powiadom użtykownika" style="endArrow=classic;html=1;rounded=0;" edge="1" parent="1" source="9sJ1elhZ4OUm8Hbvwxz0-11" target="9sJ1elhZ4OUm8Hbvwxz0-13">
          <mxGeometry width="50" height="50" relative="1" as="geometry">
            <mxPoint x="140" y="550" as="sourcePoint" />
            <mxPoint x="190" y="500" as="targetPoint" />
            <Array as="points">
              <mxPoint x="190" y="520" />
            </Array>
          </mxGeometry>
        </mxCell>
        <mxCell id="9sJ1elhZ4OUm8Hbvwxz0-28" value="Baza danych" style="shape=umlLifeline;perimeter=lifelinePerimeter;whiteSpace=wrap;html=1;container=1;dropTarget=0;collapsible=0;recursiveResize=0;outlineConnect=0;portConstraint=eastwest;newEdgeStyle={&quot;curved&quot;:0,&quot;rounded&quot;:0};participant=umlEntity;size=80;" vertex="1" parent="1">
          <mxGeometry x="700" y="80" width="80" height="560" as="geometry" />
        </mxCell>
        <mxCell id="9sJ1elhZ4OUm8Hbvwxz0-29" value="" style="html=1;points=[[0,0,0,0,5],[0,1,0,0,-5],[1,0,0,0,5],[1,1,0,0,-5]];perimeter=orthogonalPerimeter;outlineConnect=0;targetShapes=umlLifeline;portConstraint=eastwest;newEdgeStyle={&quot;curved&quot;:0,&quot;rounded&quot;:0};" vertex="1" parent="9sJ1elhZ4OUm8Hbvwxz0-28">
          <mxGeometry x="35" y="380" width="10" height="60" as="geometry" />
        </mxCell>
        <mxCell id="9sJ1elhZ4OUm8Hbvwxz0-34" value="" style="html=1;points=[[0,0,0,0,5],[0,1,0,0,-5],[1,0,0,0,5],[1,1,0,0,-5]];perimeter=orthogonalPerimeter;outlineConnect=0;targetShapes=umlLifeline;portConstraint=eastwest;newEdgeStyle={&quot;curved&quot;:0,&quot;rounded&quot;:0};" vertex="1" parent="9sJ1elhZ4OUm8Hbvwxz0-28">
          <mxGeometry x="35" y="480" width="10" height="60" as="geometry" />
        </mxCell>
        <mxCell id="9sJ1elhZ4OUm8Hbvwxz0-32" value="[wykrytoRuch = False]" style="text;html=1;align=center;verticalAlign=middle;whiteSpace=wrap;rounded=0;" vertex="1" parent="1">
          <mxGeometry x="290" y="180" width="130" height="30" as="geometry" />
        </mxCell>
        <mxCell id="9sJ1elhZ4OUm8Hbvwxz0-33" value="Zarejestruj fałszywy alarm" style="endArrow=classic;html=1;rounded=0;" edge="1" parent="1" source="9sJ1elhZ4OUm8Hbvwxz0-11" target="9sJ1elhZ4OUm8Hbvwxz0-34">
          <mxGeometry width="50" height="50" relative="1" as="geometry">
            <mxPoint x="350" y="600" as="sourcePoint" />
            <mxPoint x="750" y="590" as="targetPoint" />
            <Array as="points">
              <mxPoint x="475" y="590" />
            </Array>
          </mxGeometry>
        </mxCell>
      </root>
    </mxGraphModel>
  </diagram>
</mxfile>
